<svg width="15" height="15" viewBox="0 0 15 15" fill="none" xmlns="http://www.w3.org/2000/svg">
<g clip-path="url(#clip0_46_263)">
<path d="M8.96011 3.69725C9.5327 3.80896 10.0589 4.089 10.4714 4.50151C10.8839 4.91402 11.164 5.44025 11.2757 6.01283L8.96011 3.69725ZM8.96011 1.35236C10.1497 1.48451 11.259 2.01724 12.1059 2.86306C12.9528 3.70888 13.4869 4.81753 13.6206 6.00697L8.96011 1.35236ZM13.0344 10.685V12.4437C13.035 12.607 13.0016 12.7686 12.9362 12.9182C12.8708 13.0677 12.7748 13.202 12.6545 13.3124C12.5342 13.4228 12.3922 13.5068 12.2375 13.5591C12.0829 13.6114 11.919 13.6308 11.7564 13.6161C9.95249 13.4201 8.21971 12.8037 6.69729 11.8164C5.28087 10.9164 4.08 9.71552 3.17995 8.2991C2.18922 6.76976 1.57267 5.02856 1.38025 3.21655C1.3656 3.05444 1.38486 2.89105 1.43682 2.73679C1.48877 2.58254 1.57228 2.44079 1.68201 2.32057C1.79175 2.20036 1.92532 2.10431 2.07421 2.03854C2.2231 1.97278 2.38406 1.93873 2.54683 1.93858H4.3055C4.59 1.93578 4.86581 2.03652 5.08152 2.22204C5.29723 2.40755 5.43813 2.66517 5.47795 2.94688C5.55218 3.5097 5.68984 4.06231 5.8883 4.59417C5.96718 4.80399 5.98425 5.03203 5.93749 5.25126C5.89074 5.47048 5.78212 5.67171 5.6245 5.8311L4.88 6.5756C5.71452 8.04324 6.9297 9.25842 8.39734 10.0929L9.14184 9.34844C9.30123 9.19083 9.50246 9.08221 9.72169 9.03545C9.94091 8.9887 10.1689 9.00577 10.3788 9.08464C10.9106 9.2831 11.4632 9.42077 12.0261 9.495C12.3108 9.53517 12.5709 9.6786 12.7568 9.89802C12.9427 10.1174 13.0415 10.3975 13.0344 10.685Z" stroke="#1C1C1C" stroke-width="1.15323" stroke-linecap="round" stroke-linejoin="round"/>
</g>
<defs>
<clipPath id="clip0_46_263">
<rect width="14.0694" height="14.0694" fill="white" transform="translate(0.137207 0.766136)"/>
</clipPath>
</defs>
</svg>
