<svg width="15" height="15" viewBox="0 0 15 15" fill="none" xmlns="http://www.w3.org/2000/svg">
<g clip-path="url(#clip0_46_269)">
<path d="M9.45972 5.45618C10.3926 5.45618 11.2872 5.82676 11.9469 6.48639C12.6065 7.14602 12.9771 8.04067 12.9771 8.97352V13.0771H10.6322V8.97352C10.6322 8.66257 10.5086 8.36435 10.2888 8.14448C10.0689 7.9246 9.77067 7.80108 9.45972 7.80108C9.14877 7.80108 8.85055 7.9246 8.63068 8.14448C8.4108 8.36435 8.28728 8.66257 8.28728 8.97352V13.0771H5.94238V8.97352C5.94238 8.04067 6.31296 7.14602 6.97259 6.48639C7.63222 5.82676 8.52687 5.45618 9.45972 5.45618V5.45618Z" stroke="#1C1C1C" stroke-width="1.15323" stroke-linecap="round" stroke-linejoin="round"/>
<path d="M3.59733 6.04237H1.25244V13.077H3.59733V6.04237Z" stroke="#1C1C1C" stroke-width="1.15323" stroke-linecap="round" stroke-linejoin="round"/>
<path d="M2.42489 4.28348C3.07241 4.28348 3.59733 3.75855 3.59733 3.11103C3.59733 2.46351 3.07241 1.93858 2.42489 1.93858C1.77736 1.93858 1.25244 2.46351 1.25244 3.11103C1.25244 3.75855 1.77736 4.28348 2.42489 4.28348Z" stroke="#1C1C1C" stroke-width="1.15323" stroke-linecap="round" stroke-linejoin="round"/>
</g>
<defs>
<clipPath id="clip0_46_269">
<rect width="14.0694" height="14.0694" fill="white" transform="translate(0.0800781 0.766136)"/>
</clipPath>
</defs>
</svg>
