<svg width="74" height="32" viewBox="0 0 74 32" fill="none" xmlns="http://www.w3.org/2000/svg">
<path d="M16.8549 31.8526C25.6602 31.8526 32.7982 24.807 32.7982 16.1158C32.7982 7.42463 25.6602 0.379028 16.8549 0.379028C8.04968 0.379028 0.911621 7.42463 0.911621 16.1158C0.911621 24.807 8.04968 31.8526 16.8549 31.8526Z" fill="#FFD401"/>
<path d="M16.8958 29.8901C14.273 29.8488 11.8361 29.126 9.68828 27.6803C8.80024 27.1021 7.99482 26.3586 7.18939 25.7184C6.7557 25.3673 6.56983 24.9543 6.65244 24.376C6.77635 23.4054 7.85025 22.8684 8.69698 23.3641C8.92415 23.5087 9.15133 23.7565 9.39915 23.9423C13.2611 27.639 19.0849 28.1966 23.5251 25.0989C26.0033 23.3641 27.5316 20.9685 28.0479 17.9946C28.75 13.9881 27.4696 10.6218 24.537 7.85448C22.9262 6.34689 20.9436 5.45885 18.7545 5.19038C18.2175 5.10777 17.6806 5.06647 17.1436 5.04582C16.3795 5.00451 15.8013 4.46756 15.8013 3.7654C15.8013 3.02193 16.3795 2.42302 17.1436 2.38172C18.4654 2.34041 19.7664 2.56758 21.0468 2.95997C24.0207 3.848 26.4577 5.50016 28.2957 7.97839C29.9478 10.2088 30.8359 12.7283 31.0011 15.4957C31.1456 18.6968 30.2576 21.6293 28.3783 24.1695C26.1479 27.1847 23.1327 29.064 19.3534 29.6423C18.4447 29.7662 17.6806 29.8075 16.8958 29.8901Z" fill="#1C1C1F"/>
<path d="M5.66151 22.5193C4.89739 22.5193 4.27783 21.941 4.27783 21.1975C4.27783 20.4541 4.89739 19.8552 5.62021 19.8139C6.32237 19.7726 7.00389 20.4747 7.04519 21.1562C7.02454 21.8997 6.40498 22.5193 5.66151 22.5193Z" fill="#1C1C1F"/>
<path d="M16.9912 22.2043C18.3749 22.2043 19.4694 21.8945 20.2749 21.2749C21.0803 20.6554 21.514 19.8087 21.514 18.7761C21.514 17.7641 21.0803 16.9174 20.2749 16.2978C19.8205 15.9467 18.8912 15.4924 17.4869 14.9555C17.0325 14.7696 16.6814 14.6457 16.4749 14.5631C16.289 14.4805 16.0206 14.3772 15.7314 14.212C15.4217 14.0674 15.2358 13.9022 15.0706 13.7576C14.9467 13.6131 14.8847 13.4479 14.8847 13.3239C14.8847 13.0142 15.0706 12.7457 15.4217 12.5805C15.7727 12.3946 16.2684 12.312 16.8467 12.312C17.8173 12.312 18.7053 12.6631 19.5521 13.3446L21.2868 11.9196C20.2129 10.6805 18.7466 10.0609 16.9293 10.0609C15.6488 10.0609 14.5749 10.3294 13.7282 10.9077C12.8815 11.4859 12.4478 12.25 12.4478 13.2207C12.4478 13.6544 12.5304 13.9848 12.6337 14.3359C12.7369 14.687 12.9434 14.9142 13.088 15.1413C13.2326 15.3685 13.5423 15.575 13.9347 15.8022C14.3271 16.0294 14.6782 16.2359 14.9467 16.3391C15.2151 16.463 15.6488 16.6489 16.1858 16.8761C16.2271 16.8761 16.3097 16.9174 16.3304 16.9174C16.4543 17 16.4956 17 16.5369 17C16.5782 17 16.6195 17.0413 16.6814 17.0826C17.2597 17.3098 17.6934 17.5163 17.9619 17.6196C18.2303 17.7641 18.4988 17.9293 18.726 18.1152C18.9531 18.3011 19.0771 18.5489 19.0771 18.7761C19.0771 19.1685 18.8912 19.4782 18.5401 19.6641C18.189 19.85 17.7347 19.9739 17.1564 19.9739C15.9999 19.9739 14.9467 19.5195 13.9967 18.5902L12.3032 20.1391C12.7989 20.8 13.4597 21.2956 14.3065 21.6467C15.0706 21.9978 15.9999 22.2043 16.9912 22.2043Z" fill="#1C1C1F"/>
<path d="M48.7407 16.1559C48.7407 17.1265 48.5961 17.9733 48.2863 18.6961C47.9766 19.4395 47.5842 20.0798 47.0885 20.5961C46.5929 21.0917 46.0146 21.5254 45.3538 21.7526C44.6929 22.021 44.032 22.1449 43.3505 22.1449C42.4212 22.1449 41.6158 21.9591 40.9962 21.5254C40.3766 21.0917 39.8397 20.6374 39.4473 20.1004V25.3873H36.7832V10.3527H39.4473L39.406 12.2733C39.8397 11.6538 40.3766 11.1581 40.9962 10.7244C41.6158 10.2907 42.3799 10.1049 43.3505 10.1049C44.0527 10.1049 44.6929 10.2288 45.3538 10.4973C46.0146 10.7657 46.5516 11.1581 47.0472 11.6538C47.5429 12.1494 47.9766 12.8103 48.245 13.5537C48.5755 14.2972 48.7407 15.1852 48.7407 16.1559ZM46.5103 16.1559C46.5103 15.5776 46.4277 15.082 46.2418 14.607C46.0559 14.132 45.8081 13.7603 45.5396 13.4505C45.2298 13.1407 44.8788 12.8722 44.507 12.707C44.1146 12.5211 43.7016 12.4385 43.2266 12.4385C42.7516 12.4385 42.3386 12.5211 41.9462 12.707C41.5125 12.8929 41.1821 13.1407 40.8723 13.4711C40.5625 13.8222 40.3353 14.2146 40.1288 14.6276C39.943 15.082 39.8603 15.5983 39.8603 16.1765C39.8603 16.7548 39.943 17.2504 40.1288 17.7254C40.3147 18.2004 40.5625 18.5722 40.8723 18.8819C41.1821 19.233 41.5331 19.4602 41.9462 19.6461C42.3799 19.8319 42.7929 19.9145 43.2266 19.9145C43.681 19.9145 44.1146 19.8319 44.507 19.6461C44.8994 19.4602 45.2505 19.2124 45.5396 18.9026C45.8494 18.5928 46.0766 18.2004 46.2418 17.7461C46.4277 17.2298 46.5103 16.6928 46.5103 16.1559Z" fill="black"/>
<path d="M54.5233 22.3509C55.8657 22.3509 56.9603 21.9585 57.7657 21.1531V22.0824H60.3059V14.5238C60.3059 11.6325 58.757 10.1662 55.6799 10.1662C53.9451 10.1662 52.3962 10.6206 50.9712 11.5086L51.7766 13.6358C52.9744 12.8716 54.2136 12.438 55.4733 12.438C57.0222 12.438 57.7864 13.1401 57.7864 14.5238V15.226C56.9809 14.7923 56.0103 14.6064 54.8951 14.6064C53.6147 14.6064 52.5408 14.9162 51.6114 15.5771C50.6821 16.2379 50.269 17.1879 50.269 18.427C50.269 19.6661 50.6614 20.6368 51.4669 21.277C52.2929 21.9379 53.2636 22.3509 54.5233 22.3509ZM55.0396 20.0379C54.3375 20.0379 53.7592 19.8933 53.3875 19.6042C52.9951 19.3357 52.8092 18.9433 52.8092 18.489C52.8092 17.952 53.0364 17.5596 53.5527 17.2912C54.007 17.0227 54.6266 16.8575 55.3701 16.8575C56.3407 16.8575 57.1461 17.0433 57.8483 17.3944V18.902C57.0429 19.6661 56.1135 20.0379 55.0396 20.0379Z" fill="black"/>
<path d="M67.4517 26.3782L73.5647 10.311H70.8593L68.1952 17.4152C68.1539 17.4978 68.1126 17.6011 68.0713 17.7663C68.03 17.9109 67.9887 18.0348 67.9267 18.2C67.8854 18.3239 67.8441 18.4272 67.8028 18.5511C67.6789 18.1174 67.5756 17.787 67.4517 17.4772L64.7876 10.3729H62.1235L66.4811 21.7934L64.705 26.4195H67.4517V26.3782Z" fill="black"/>
</svg>
